<?xml version="1.0" encoding="utf-8"?>
<!-- Generator: Adobe Illustrator 19.1.0, SVG Export Plug-In . SVG Version: 6.00 Build 0)  -->
<svg version="1.1" id="Layer_1" xmlns="http://www.w3.org/2000/svg" xmlns:xlink="http://www.w3.org/1999/xlink" x="0px" y="0px"
	 viewBox="0 0 678.5 123.7" enable-background="new 0 0 678.5 123.7" xml:space="preserve">
<g id="Layer_1_2_">
	<g>
		<path fill="#2A2A2A" d="M40.1,60.4H15.9c-1.9,0-3.4,1.5-3.4,3.4s1.5,3.4,3.4,3.4h24.2c1.9,0,3.4-1.5,3.4-3.4S42,60.4,40.1,60.4"/>
		<path fill="#2A2A2A" d="M55.5,49.1H20.6c-1.9,0-3.4,1.5-3.4,3.4s1.5,3.4,3.4,3.4h34.9c1.9,0,3.4-1.5,3.4-3.4S57.4,49.1,55.5,49.1"
			/>
		<path fill="#2A2A2A" d="M62.6,37.8h-42c-1.9,0-3.4,1.5-3.4,3.4s1.5,3.4,3.4,3.4h42c1.9,0,3.4-1.5,3.4-3.4
			C65.9,39.3,64.4,37.8,62.6,37.8"/>
		<path fill="#2A2A2A" d="M56.8,26.4H20.6c-1.9,0-3.4,1.5-3.4,3.4s1.5,3.4,3.4,3.4h36.2c1.9,0,3.4-1.5,3.4-3.4S58.7,26.4,56.8,26.4"
			/>
		<path fill="#2A2A2A" d="M25.9,15.1h-10c-1.9,0-3.4,1.5-3.4,3.4s1.5,3.4,3.4,3.4H26c1.9,0,3.4-1.5,3.4-3.4
			C29.3,16.6,27.8,15.1,25.9,15.1"/>
		<path fill="#2A2A2A" d="M13.6,0C6.1,0,0,6.1,0,13.6v55.5c0,7.5,6.1,13.6,13.6,13.6h65.6c1.9,0,3.5-1.6,3.5-3.5s-1.6-3.5-3.5-3.5
			H13.6c-3.6,0-6.6-3-6.6-6.6V13.6C7,10,10,7,13.6,7h55.5c3.6,0,6.6,2.9,6.6,6.6v45c0,1.9,1.6,3.5,3.5,3.5s3.5-1.6,3.5-3.5v-45
			C82.7,6.1,76.6,0,69.1,0H13.6z"/>
		<path fill="#2A2A2A" d="M82.9,79.3v12.2L66.1,75.7h13.2C81.3,75.7,82.9,77.3,82.9,79.3"/>
		<path fill="#2A2A2A" d="M126.5,11.2c0-1.2,0.9-2.2,2.1-2.2s2.2,1,2.2,2.2v26.1c3-5.3,8.1-9.5,16.4-9.5c11.5,0,18.1,7.8,18.1,18.7
			v25.9c0,1.3-0.9,2.2-2.1,2.2c-1.2,0-2.2-0.9-2.2-2.2V47.3c0-9.3-5.2-15.5-14.4-15.5c-8.9,0-15.7,6.8-15.7,16.2v24.4
			c0,1.3-0.9,2.2-2.1,2.2c-1.2,0-2.2-0.9-2.2-2.2V11.2H126.5z"/>
		<path fill="#2A2A2A" d="M175.1,61.1v-0.2c0-9.4,8.1-14.8,19.8-14.8c6.3,0,10.7,0.8,15,2v-2c0-9.2-5.6-13.9-14.9-13.9
			c-5,0-9.2,1.2-12.9,3c-0.4,0.2-0.7,0.3-1,0.3c-1.1,0-2-1-2-2c0-1.1,0.8-1.8,1.2-2c4.6-2,9.2-3.4,14.9-3.4c6.1,0,11,1.7,14.3,5
			c3,3,4.6,7.2,4.6,12.8v26.4c0,1.3-0.9,2.2-2.1,2.2c-1.2,0-2.1-0.9-2.1-2.2v-5.7c-3.1,4.4-8.7,8.6-17.3,8.6
			C184.2,75.3,175.1,70.5,175.1,61.1 M210,57.3v-5.2c-3.8-1-8.9-2-15.4-2c-9.6,0-14.9,4.3-14.9,10.6v0.2c0,6.6,6.2,10.4,13.2,10.4
			C202.1,71.2,210,65.5,210,57.3"/>
		<path fill="#2A2A2A" d="M224.6,51.8v-0.2c0-12.7,10.1-23.7,23.1-23.7c7.8,0,13,3.4,17.1,7.2c0.4,0.4,0.6,1,0.6,1.6
			c0,1.2-1,2.2-2.2,2.2c-0.5,0-1.2-0.2-1.5-0.5c-3.6-3.5-7.9-6.4-14-6.4c-10.3,0-18.3,8.6-18.3,19.5v0.2c0,10.9,8.3,19.6,18.7,19.6
			c5.9,0,10.6-2.8,14.2-6.5c0.4-0.4,0.8-0.7,1.4-0.7c1.1,0,2.1,1.1,2.1,2.1c0,0.4-0.2,1-0.5,1.3c-4.5,4.6-9.8,7.8-17.5,7.8
			C234.7,75.3,224.6,64.5,224.6,51.8"/>
		<path fill="#2A2A2A" d="M276.3,11.2c0-1.2,0.9-2.2,2.1-2.2s2.2,1,2.2,2.2V58l27.8-28.8c0.4-0.4,0.9-0.6,1.5-0.6c1.2,0,2,0.9,2,2
			c0,0.6-0.2,1-0.7,1.5L294.7,49l17.8,22c0.4,0.5,0.6,1,0.6,1.6c0,1.2-0.9,2-2.1,2c-0.8,0-1.2-0.3-1.9-1l-17.4-21.5l-11,11.1v9.2
			c0,1.3-0.9,2.2-2.1,2.2s-2.2-0.9-2.2-2.2V11.2H276.3z"/>
		<path fill="#2A2A2A" d="M325.8,66.3c1.7,0,2.9,1.2,2.9,2.9v2.4c0,1.7-1.2,2.9-2.9,2.9c-1.7,0-2.9-1.2-2.9-2.9v-2.4
			C322.8,67.6,324.1,66.3,325.8,66.3"/>
		<path fill="#2A2A2A" d="M342,11.2c0-1.2,0.9-2.2,2.1-2.2s2.2,1,2.2,2.2v26.1c3-5.3,8.1-9.5,16.4-9.5c11.5,0,18.1,7.8,18.1,18.7
			v25.9c0,1.3-0.9,2.2-2.1,2.2s-2.2-0.9-2.2-2.2V47.3c0-9.3-5.2-15.5-14.4-15.5c-8.9,0-15.7,6.8-15.7,16.2v24.4
			c0,1.3-0.9,2.2-2.1,2.2s-2.2-0.9-2.2-2.2L342,11.2L342,11.2z"/>
		<path fill="#2A2A2A" d="M390.7,61.1v-0.2c0-9.4,8.1-14.8,19.8-14.8c6.3,0,10.7,0.8,15,2v-2c0-9.2-5.6-13.9-14.9-13.9
			c-5,0-9.2,1.2-12.9,3c-0.4,0.2-0.7,0.3-1,0.3c-1.1,0-2-1-2-2c0-1.1,0.8-1.8,1.2-2c4.6-2,9.2-3.4,14.9-3.4c6.1,0,11,1.7,14.3,5
			c3,3,4.6,7.2,4.6,12.8v26.4c0,1.3-0.9,2.2-2.1,2.2s-2.1-0.9-2.1-2.2v-5.7c-3.1,4.4-8.7,8.6-17.3,8.6
			C399.7,75.3,390.7,70.5,390.7,61.1 M425.6,57.3v-5.2c-3.8-1-8.9-2-15.4-2c-9.6,0-14.9,4.3-14.9,10.6v0.2c0,6.6,6.2,10.4,13.2,10.4
			C417.7,71.2,425.6,65.5,425.6,57.3"/>
		<path fill="#2A2A2A" d="M443.3,30.8c0-1.2,0.9-2.2,2.1-2.2s2.2,0.9,2.2,2.2v6.6c3-5.3,8.1-9.5,16.4-9.5c11.5,0,18.1,7.8,18.1,18.7
			v25.9c0,1.3-0.9,2.2-2.1,2.2s-2.2-0.9-2.2-2.2V47.3c0-9.3-5.2-15.5-14.4-15.5c-8.9,0-15.7,6.8-15.7,16.2v24.4
			c0,1.3-0.9,2.2-2.1,2.2s-2.2-0.9-2.2-2.2L443.3,30.8L443.3,30.8z"/>
		<path fill="#2A2A2A" d="M537.8,72.4c0,1.3-0.9,2.2-2.1,2.2s-2.2-0.9-2.2-2.2v-8.3c-3.9,6-9.7,11.2-18.7,11.2
			c-10.9,0-22-8.8-22-23.6v-0.2c0-14.8,11.1-23.7,22-23.7c9.1,0,14.9,5.2,18.7,10.8V11.2c0-1.3,0.9-2.2,2.1-2.2
			c1.2,0,2.2,0.9,2.2,2.2V72.4z M497.4,51.4v0.2c0,11.9,8.3,19.6,17.8,19.6c9.4,0,18.5-7.9,18.5-19.5v-0.2
			c0-11.6-9.1-19.5-18.5-19.5C505.4,32,497.4,39.2,497.4,51.4"/>
		<path fill="#2A2A2A" d="M549.3,69.3c-0.4-0.3-0.8-1-0.8-1.7c0-1.2,1-2.1,2.1-2.1c0.5,0,1.1,0.2,1.4,0.4c4.7,3.4,9.7,5.2,15.1,5.2
			c6.1,0,10.9-3.4,10.9-8.6v-0.2c0-5.3-5.7-7.3-12-9.1c-7.4-2.1-15.6-4.4-15.6-12.4v-0.2c0-7.3,6.1-12.5,14.9-12.5
			c4.9,0,10.3,1.6,14.7,4.1c0.5,0.4,1.2,1,1.2,2c0,1.2-1,2.1-2.1,2.1c-0.5,0-1-0.2-1.2-0.4c-3.9-2.3-8.3-3.7-12.6-3.7
			c-6.2,0-10.3,3.4-10.3,7.9v0.2c0,5.1,6.1,6.9,12.6,8.8c7.3,2,14.9,4.7,14.9,12.7V62c0,8.1-6.9,13.2-15.6,13.2
			C560.7,75.1,553.9,72.7,549.3,69.3"/>
		<path fill="#2A2A2A" d="M616.1,86.3c-15-8.8-23.8-21.7-23.8-37.6s8.8-28.8,23.8-37.6c0.2-0.1,0.6-0.3,1.1-0.3c1,0,1.7,0.7,1.7,1.7
			c0,0.7-0.4,1.2-1,1.6c-13.4,8.5-21,20-21,34.6s7.6,26,21,34.6c0.6,0.4,1,0.9,1,1.6c0,1-0.7,1.7-1.7,1.7
			C616.7,86.6,616.3,86.4,616.1,86.3"/>
		<path fill="#2A2A2A" d="M651.9,84.9c0-0.7,0.4-1.2,1-1.6c13.4-8.5,21-20,21-34.6s-7.6-26-21-34.6c-0.6-0.4-1-0.9-1-1.6
			c0-1,0.7-1.7,1.7-1.7c0.4,0,0.9,0.2,1.1,0.3c15,8.8,23.8,21.7,23.8,37.6s-8.8,28.8-23.8,37.6c-0.2,0.1-0.6,0.3-1.1,0.3
			C652.7,86.6,651.9,85.9,651.9,84.9"/>
		<path fill="#2A2A2A" d="M301.6,107.9h2.5l6.8,15.5H308l-1.6-3.7h-7.3l-1.6,3.7h-2.8L301.6,107.9z M305.5,117.3l-2.7-6.2l-2.6,6.2
			H305.5z"/>
		<path fill="#2A2A2A" d="M326.8,108h6.1c0.9,0,1.7,0.1,2.4,0.4c0.7,0.2,1.3,0.6,1.8,1c0.5,0.5,0.9,1,1.2,1.6
			c0.3,0.6,0.4,1.3,0.4,2.1l0,0c0,0.9-0.2,1.6-0.5,2.3s-0.8,1.2-1.3,1.6c-0.6,0.4-1.2,0.8-2,1s-1.6,0.3-2.4,0.3h-3.1v5h-2.7V108
			H326.8z M332.6,116c1,0,1.8-0.3,2.4-0.8s0.9-1.2,0.9-2l0,0c0-0.9-0.3-1.6-0.9-2.1s-1.4-0.7-2.4-0.7h-3.2v5.6H332.6z"/>
		<polygon fill="#2A2A2A" points="344.8,108 347.4,108 347.4,121 355.5,121 355.5,123.4 344.8,123.4 		"/>
		<path fill="#2A2A2A" d="M368,123.7c-1,0-1.9-0.1-2.7-0.4c-0.8-0.3-1.5-0.7-2.1-1.3c-0.6-0.6-1-1.3-1.3-2.1
			c-0.3-0.8-0.5-1.8-0.5-2.9v-9h2.7v8.8c0,1.4,0.3,2.5,1,3.3c0.7,0.7,1.7,1.1,2.9,1.1c1.2,0,2.2-0.4,2.9-1.1c0.7-0.7,1-1.8,1-3.2
			V108h2.7v8.7c0,1.1-0.2,2.1-0.5,3s-0.8,1.6-1.3,2.2c-0.6,0.6-1.3,1-2.1,1.3S369,123.7,368,123.7"/>
		<path fill="#2A2A2A" d="M381.6,108h6.9c1,0,1.8,0.1,2.6,0.4c0.7,0.3,1.4,0.7,1.9,1.1c0.4,0.4,0.7,0.9,0.9,1.5
			c0.2,0.6,0.3,1.2,0.3,1.8l0,0c0,0.6-0.1,1.2-0.3,1.7c-0.2,0.5-0.4,1-0.8,1.3c-0.3,0.4-0.7,0.7-1.2,1c-0.4,0.3-0.9,0.5-1.5,0.6
			l4.2,5.8h-3.2l-3.8-5.4l0,0h-3.4v5.4h-2.7V108H381.6z M388.3,115.6c1,0,1.7-0.2,2.3-0.7c0.6-0.5,0.9-1.1,0.9-1.9l0,0
			c0-0.8-0.3-1.5-0.8-1.9c-0.6-0.4-1.3-0.7-2.4-0.7h-4v5.2H388.3z"/>
		<path fill="#2A2A2A" d="M406.3,107.9h2.5l6.8,15.5h-2.9l-1.6-3.7h-7.3l-1.6,3.7h-2.8L406.3,107.9z M410.2,117.3l-2.7-6.2l-2.6,6.2
			H410.2z"/>
		<polygon fill="#2A2A2A" points="421.5,108 424.2,108 424.2,121 432.3,121 432.3,123.4 421.5,123.4 		"/>
		<path fill="#2A2A2A" d="M443.8,123.6c-1.2,0-2.3-0.2-3.4-0.6s-2.1-1-3-1.9l1.6-1.9c0.7,0.6,1.5,1.1,2.3,1.5
			c0.8,0.3,1.6,0.5,2.6,0.5c0.8,0,1.5-0.2,2-0.5c0.5-0.4,0.7-0.8,0.7-1.4l0,0c0-0.3,0-0.5-0.1-0.7s-0.3-0.4-0.5-0.6
			c-0.3-0.2-0.6-0.4-1.1-0.5c-0.4-0.2-1-0.3-1.8-0.5s-1.6-0.4-2.2-0.7c-0.6-0.2-1.2-0.5-1.6-0.9c-0.4-0.3-0.8-0.8-1-1.3
			s-0.3-1.1-0.3-1.8l0,0c0-0.7,0.1-1.3,0.4-1.8s0.6-1,1.1-1.4s1-0.7,1.7-0.9c0.6-0.2,1.3-0.3,2.1-0.3c1.1,0,2.1,0.2,3,0.5
			s1.7,0.8,2.5,1.4l-1.5,2c-0.7-0.5-1.4-0.9-2.1-1.2c-0.7-0.3-1.4-0.4-2.1-0.4c-0.8,0-1.4,0.2-1.8,0.5c-0.4,0.4-0.7,0.8-0.7,1.3l0,0
			c0,0.3,0.1,0.6,0.2,0.8c0.1,0.2,0.3,0.4,0.6,0.6c0.3,0.2,0.6,0.4,1.1,0.5c0.5,0.2,1.1,0.3,1.8,0.5c0.8,0.2,1.5,0.4,2.1,0.7
			c0.6,0.2,1.1,0.6,1.6,0.9c0.4,0.4,0.7,0.8,0.9,1.3c0.2,0.5,0.3,1,0.3,1.7l0,0c0,0.7-0.1,1.4-0.4,1.9c-0.3,0.6-0.6,1.1-1.1,1.5
			s-1.1,0.7-1.7,0.9S444.7,123.6,443.8,123.6"/>
		<rect x="456" y="108" fill="#2A2A2A" width="2.7" height="15.4"/>
		<path fill="#2A2A2A" d="M473.4,123.7c-1.2,0-2.3-0.2-3.3-0.6s-1.8-1-2.5-1.7s-1.2-1.5-1.6-2.5s-0.6-2-0.6-3.1l0,0
			c0-1.1,0.2-2.1,0.6-3.1s0.9-1.8,1.6-2.5s1.6-1.3,2.5-1.7c1-0.4,2-0.6,3.2-0.6c0.7,0,1.3,0,1.8,0.1c0.6,0.1,1.1,0.2,1.5,0.4
			s0.9,0.4,1.3,0.6c0.4,0.3,0.8,0.6,1.2,0.9l-1.7,2c-0.3-0.2-0.6-0.5-0.9-0.7s-0.6-0.4-1-0.5c-0.3-0.1-0.7-0.2-1.1-0.3
			c-0.4-0.1-0.8-0.1-1.3-0.1c-0.7,0-1.4,0.1-2,0.4s-1.1,0.7-1.6,1.2c-0.4,0.5-0.8,1.1-1.1,1.7c-0.3,0.7-0.4,1.4-0.4,2.1l0,0
			c0,0.8,0.1,1.5,0.4,2.2c0.2,0.7,0.6,1.3,1.1,1.7c0.5,0.5,1,0.9,1.6,1.1c0.6,0.3,1.4,0.4,2.1,0.4s1.4-0.1,2.1-0.3
			c0.6-0.2,1.2-0.5,1.7-0.9V117h-3.9v-2.4h6.6v6.5c-0.4,0.3-0.8,0.6-1.3,0.9s-1,0.5-1.5,0.8c-0.5,0.2-1.1,0.4-1.7,0.5
			C474.7,123.6,474.1,123.7,473.4,123.7"/>
		<polygon fill="#2A2A2A" points="486.6,108 489.3,108 489.3,114.4 496.7,114.4 496.7,108 499.4,108 499.4,123.4 496.7,123.4 
			496.7,116.9 489.3,116.9 489.3,123.4 486.6,123.4 		"/>
		<polygon fill="#2A2A2A" points="510.4,110.5 505.6,110.5 505.6,108 518.1,108 518.1,110.5 513.2,110.5 513.2,123.4 510.4,123.4 		
			"/>
		<path fill="#2A2A2A" d="M541.3,123.7c-1.1,0-2.2-0.2-3.1-0.6c-1-0.4-1.8-1-2.5-1.7s-1.3-1.6-1.7-2.5c-0.4-1-0.6-2-0.6-3.1l0,0
			c0-1.1,0.2-2.1,0.6-3.1c0.4-1,0.9-1.8,1.7-2.5c0.7-0.7,1.5-1.3,2.5-1.7c1-0.4,2-0.6,3.2-0.6c0.7,0,1.3,0.1,1.9,0.2
			c0.6,0.1,1.1,0.3,1.6,0.5s0.9,0.5,1.3,0.8c0.4,0.3,0.8,0.6,1.2,1l-1.7,2c-0.6-0.6-1.3-1-2-1.4s-1.5-0.5-2.4-0.5
			c-0.7,0-1.4,0.1-2,0.4s-1.2,0.7-1.6,1.2c-0.5,0.5-0.8,1.1-1.1,1.7c-0.2,0.7-0.4,1.4-0.4,2.1l0,0c0,0.7,0.1,1.5,0.4,2.1
			c0.2,0.7,0.6,1.3,1.1,1.7c0.5,0.5,1,0.9,1.6,1.2c0.6,0.3,1.3,0.4,2,0.4c0.9,0,1.7-0.2,2.4-0.5c0.7-0.4,1.3-0.8,2-1.5l1.7,1.8
			c-0.4,0.4-0.8,0.8-1.2,1.1c-0.4,0.3-0.9,0.6-1.4,0.9c-0.5,0.2-1,0.4-1.6,0.6C542.7,123.6,542,123.7,541.3,123.7"/>
		<path fill="#2A2A2A" d="M561,123.7c-1.2,0-2.3-0.2-3.3-0.6s-1.8-1-2.5-1.7s-1.3-1.6-1.7-2.5c-0.4-1-0.6-2-0.6-3.1l0,0
			c0-1.1,0.2-2.1,0.6-3.1c0.4-1,1-1.8,1.7-2.5s1.6-1.3,2.6-1.7c1-0.4,2.1-0.6,3.3-0.6s2.3,0.2,3.3,0.6s1.8,1,2.5,1.7
			s1.3,1.6,1.6,2.5c0.4,1,0.6,2,0.6,3.1l0,0c0,1.1-0.2,2.1-0.6,3.1c-0.4,1-1,1.8-1.7,2.5s-1.6,1.3-2.6,1.7
			C563.3,123.5,562.2,123.7,561,123.7 M561,121.2c0.8,0,1.5-0.1,2.1-0.4s1.2-0.7,1.6-1.2c0.5-0.5,0.8-1.1,1.1-1.7
			c0.3-0.7,0.4-1.4,0.4-2.1l0,0c0-0.7-0.1-1.5-0.4-2.1c-0.3-0.7-0.6-1.2-1.1-1.7s-1-0.9-1.7-1.2c-0.6-0.3-1.3-0.4-2.1-0.4
			s-1.5,0.1-2.1,0.4s-1.2,0.7-1.6,1.2c-0.5,0.5-0.8,1.1-1.1,1.7c-0.3,0.7-0.4,1.4-0.4,2.1l0,0c0,0.7,0.1,1.5,0.4,2.1
			c0.3,0.7,0.6,1.2,1.1,1.7s1,0.9,1.7,1.2C559.6,121,560.3,121.2,561,121.2"/>
		<polygon fill="#2A2A2A" points="575.7,108 578.5,108 583.2,115.3 587.9,108 590.8,108 590.8,123.4 588.1,123.4 588.1,112.4 
			583.2,119.6 583.2,119.6 578.3,112.4 578.3,123.4 575.7,123.4 		"/>
		<path fill="#2A2A2A" d="M598,108h6.1c0.9,0,1.7,0.1,2.4,0.4c0.7,0.2,1.3,0.6,1.8,1c0.5,0.5,0.9,1,1.2,1.6s0.4,1.3,0.4,2.1l0,0
			c0,0.9-0.2,1.6-0.5,2.3c-0.3,0.7-0.8,1.2-1.3,1.6c-0.6,0.4-1.2,0.8-2,1s-1.6,0.3-2.4,0.3h-3.1v5H598V108z M603.9,116
			c1,0,1.8-0.3,2.4-0.8c0.6-0.5,0.9-1.2,0.9-2l0,0c0-0.9-0.3-1.6-0.9-2.1c-0.6-0.5-1.4-0.7-2.4-0.7h-3.2v5.6H603.9z"/>
		<path fill="#2A2A2A" d="M621.5,107.9h2.5l6.8,15.5h-2.9l-1.6-3.7H619l-1.6,3.7h-2.8L621.5,107.9z M625.4,117.3l-2.7-6.2l-2.6,6.2
			H625.4z"/>
		<polygon fill="#2A2A2A" points="636.7,108 639.2,108 647.5,118.7 647.5,108 650.1,108 650.1,123.4 647.9,123.4 639.4,112.5 
			639.4,123.4 636.7,123.4 		"/>
		<polygon fill="#2A2A2A" points="661.9,117.3 655.8,108 659,108 663.3,114.8 667.7,108 670.8,108 664.7,117.3 664.7,123.4 
			661.9,123.4 		"/>
	</g>
</g>
</svg>
