<?xml version="1.0" encoding="utf-8"?>
<!-- Generator: Adobe Illustrator 19.1.0, SVG Export Plug-In . SVG Version: 6.00 Build 0)  -->
<svg version="1.1" id="Layer_1" xmlns="http://www.w3.org/2000/svg" xmlns:xlink="http://www.w3.org/1999/xlink" x="0px" y="0px"
	 viewBox="0 0 267.5 290.9" enable-background="new 0 0 267.5 290.9" xml:space="preserve">
<g>
	<path fill="#1CAAB9" d="M49.1,237.8c9.5,0,131.4-0.1,197.1-0.2c1.7,0,3.3-0.1,5,0.1c7.1,0.6,11.4,5.1,11.5,12.1c0.1,12,0,24,0,36.6
		c-4.4-2.7-7.3-6.4-10.7-9.4c-4.8-4.2-9.5-8.5-13.9-13.1c-3.2-3.4-6.8-4.3-11.3-4.3c-60.4,0.1-120.8,0.1-181.2,0
		c-21.6,0-40.5-18.7-40.6-40.3c-0.2-58-0.2-115.9,0-173.9C5.1,23.2,24.3,4.5,46.5,4.5c58.1,0,116.2,0,174.3,0
		c21.6,0,40.8,18,40.9,39.5c0.4,47,0.2,94.1,0.1,141.1c0,6.2-4.7,11-10.3,11.1c-6.1,0.1-11.3-4.6-11.6-11c-0.2-4.5-0.1-9.1-0.1-13.7
		c0-41-0.3-81.9,0.2-122.9c0.1-12.3-9.6-22.4-21.7-22.4c-56.9,0.3-113.8,0.1-170.7,0.2c-10.5,0-17.9,6-20.3,16
		c-0.4,1.6-0.5,3.3-0.5,4.9c0,56.1-0.1,161.8-0.1,168.4C26.9,226.9,32.9,237.8,49.1,237.8z"/>
	<path fill="#1E1639" d="M134.2,121.1c21.2,0,42.4,0,63.7,0c7.3,0,11.9,3.9,12,10.1c0.1,6.5-4.5,10.7-11.9,10.7
		c-42.4,0-84.9,0-127.3,0c-7.5,0-12.1-4.2-12-10.6c0.1-6.3,4.6-10.2,11.9-10.2C91.8,121.1,113,121.1,134.2,121.1z"/>
	<path fill="#1E153C" d="M123.5,176.8c-18,0-36.1,0-54.1,0c-5.1,0-8.6-2.5-10.1-6.9c-1.4-4.1-0.5-7.8,2.5-10.8c2.3-2.3,5.2-3,8.3-3
		c35.6,0,71.3,0,106.9,0c6.5,0,11.2,4.8,11,10.8c-0.2,5.8-4.7,9.9-11.3,9.9C159,176.8,141.2,176.8,123.5,176.8z"/>
	<path fill="#1E153C" d="M124.7,106.8c-18.3,0-36.7,0-55,0c-4.5,0-8-1.7-10-5.8c-1.9-3.7-1.4-7.3,1-10.7c2.5-3.4,6-4.3,10-4.2
		c10.2,0.1,20.3,0,30.5,0c26.2,0,52.4,0,78.6,0c7.8,0,12.1,3.8,12.1,10.4c0,6.3-4.4,10.3-11.3,10.3
		C161.9,106.9,143.3,106.9,124.7,106.8C124.7,106.9,124.7,106.9,124.7,106.8z"/>
	<path fill="#1E153C" d="M92.2,191.1c12,0,24,0,35.9,0c7.4,0,11.8,3.9,11.8,10.2c0.1,6.4-4.6,10.5-12.1,10.5c-24,0-47.9,0.1-71.9,0
		c-9.5,0-15-7.8-10.9-15.3c2.2-4,5.7-5.5,10.2-5.5C67.6,191.1,79.9,191.1,92.2,191.1z"/>
	<path fill="#1E163A" d="M69.8,72c-5,0-10,0.1-15,0c-6.5-0.1-10.8-4.2-10.9-10.3c-0.1-5.9,4.3-10.4,10.6-10.5
		c10.3-0.1,20.6-0.2,30.9,0C91.8,51.3,96.2,56,96,61.9c-0.2,5.7-4.6,9.9-10.7,10C80.1,72,75,72,69.8,72z"/>
</g>
</svg>
